<svg width="512" height="512" viewBox="0 0 512 512" fill="none" xmlns="http://www.w3.org/2000/svg">
  <style>
    /* Static rasters (app icons) render the light value; browsers that render
       the SVG favicon swap to the dark primary in dark mode. */
    @media (prefers-color-scheme: dark) {
      .tile { fill: #51A2FF; }
    }
  </style>
  <rect class="tile" width="512" height="512" rx="116" fill="#1447E6"/>
  <g transform="translate(106 106) scale(12.5)" fill="none" stroke="#FFFFFF"
     stroke-width="2" stroke-linecap="round" stroke-linejoin="round">
    <path d="M11.1 22H6a2 2 0 0 1-2-2V4a2 2 0 0 1 2-2h8a2.4 2.4 0 0 1 1.706.706l3.589 3.588A2.4 2.4 0 0 1 20 8v3.25"/>
    <path d="M14 2v5a1 1 0 0 0 1 1h5"/>
    <path d="m21 22-2.88-2.88"/>
    <circle cx="16" cy="17" r="3"/>
  </g>
</svg>
